<svg width="650" height="650" viewBox="0 0 650 650" fill="none" xmlns="http://www.w3.org/2000/svg">
<g id="undraw_feeling_proud_qne1 1" clip-path="url(#clip0)">
<g id="Table">
<path id="Vector" d="M178.097 368.849V548.407L149.815 597.355L147.663 601.078H36.0705L33.8157 368.849H178.097Z" fill="#E6E6E6"/>
<path id="Vector_2" opacity="0.1" d="M178.097 368.849V548.407L149.815 597.354L148.079 368.849H178.097Z" fill="black"/>
<path id="Vector_3" d="M447.497 364.06V543.619L475.778 592.567L477.931 596.289H589.523L591.778 364.06H447.497Z" fill="#E6E6E6"/>
<path id="Vector_4" opacity="0.1" d="M447.497 364.06V543.619L475.778 592.566L477.514 364.06H447.497Z" fill="black"/>
<path id="Vector_5" d="M-5.90482e-05 360.47V371.242H606.431V355.681L550.072 324.557H49.5962L-5.90482e-05 360.47Z" fill="#E6E6E6"/>
<path id="Vector_6" opacity="0.1" d="M-5.90482e-05 360.47V371.242H606.431V355.681L-5.90482e-05 360.47Z" fill="black"/>
<path id="Vector_7" d="M519.637 414.336H546.69L557.962 405.957H507.238L519.637 414.336Z" fill="#3F3D56"/>
<path id="Vector_8" d="M519.637 449.051H546.69L557.962 440.672H507.238L519.637 449.051Z" fill="#3F3D56"/>
<path id="Vector_9" d="M519.637 498.131H546.69L557.962 489.751H507.238L519.637 498.131Z" fill="#3F3D56"/>
<path id="Vector_10" d="M519.637 547.21H546.69L557.962 538.831H507.238L519.637 547.21Z" fill="#3F3D56"/>
<path id="Vector_11" d="M105.957 419.125H78.9034L67.6315 410.745H118.356L105.957 419.125Z" fill="#3F3D56"/>
<path id="Vector_12" d="M105.957 453.839H78.9034L67.6315 445.46H118.356L105.957 453.839Z" fill="#3F3D56"/>
<path id="Vector_13" d="M105.957 502.919H78.9034L67.6315 494.54H118.356L105.957 502.919Z" fill="#3F3D56"/>
<path id="Vector_14" d="M105.957 551.998H78.9034L67.6315 543.619H118.356L105.957 551.998Z" fill="#3F3D56"/>
</g>
<g id="Human">
<path id="Vector_15" d="M547.786 7.02785C549.365 6.89015 550.946 7.2653 552.32 8.10357C553.669 9.08467 554.52 10.8034 555.388 12.4029C558.706 18.5911 563.198 23.98 568.58 28.2283C572.5 31.2779 577.483 35.0805 576.813 40.7032C576.459 42.5601 575.813 44.3404 574.902 45.9693C571.286 53.7215 561.418 59.7124 562.389 68.5583C558.796 62.1708 563.601 59.0124 560.009 52.625C558.298 49.5831 555.325 46.1494 552.742 48.0597C551.877 48.6993 551.309 49.8465 550.409 50.4077C548.26 51.7469 545.973 49.1867 544.071 47.3733C537.512 41.12 528.184 42.7582 520.021 44.7066C516.168 45.6264 511.935 46.8332 509.657 50.7445C506.662 55.887 512.503 61.4409 513.979 67.255C514.099 67.7504 514.105 68.2695 513.995 68.7677C513.886 69.266 513.664 69.7286 513.349 70.1161C513.035 70.5036 512.636 70.8044 512.188 70.9928C511.74 71.1811 511.256 71.2515 510.777 71.1978C508.328 70.9412 505.426 70.7309 505.281 69.5895C502.2 69.706 498.424 69.3354 497.104 65.9279C496.7 64.5797 496.487 63.1755 496.471 61.7609C495.986 56.037 493.699 50.8151 492.183 45.3674C490.668 39.9196 490.009 33.5352 492.567 28.7051C493.479 27.0981 494.608 25.6412 495.917 24.3805C510.43 9.4654 529.511 7.00571 547.786 7.02785Z" fill="#2F2E41"/>
<path id="Vector_16" d="M559.232 79.7316C559.232 79.7316 556.076 107.664 567.649 109.899C579.222 112.133 557.128 150.122 557.128 150.122L504.523 156.826L517.148 112.133C517.148 112.133 525.565 108.782 520.305 86.4355C515.044 64.0894 559.232 79.7316 559.232 79.7316Z" fill="#FFB8B8"/>
<path id="Vector_17" d="M591.321 559.613L587.112 621.065H565.019L571.331 559.613H591.321Z" fill="#FFB8B8"/>
<path id="Vector_18" d="M429.298 443.414L426.142 494.809L401.943 483.637L411.413 441.179L429.298 443.414Z" fill="#FFB8B8"/>
<path id="Vector_19" d="M607.103 324.98C607.103 324.98 606.051 389.783 599.738 411.012C593.425 432.241 594.477 433.358 595.529 436.71C596.582 440.062 597.634 437.827 597.634 443.414C597.634 449 599.738 537.267 597.634 545.089C595.529 552.91 603.946 566.317 597.634 567.435C591.321 568.552 561.862 567.435 560.81 560.731C559.758 554.027 569.227 551.792 565.019 547.323C560.81 542.854 554.498 451.235 554.498 451.235L539.768 387.549L512.414 354.03H454.549L436.663 427.772C436.663 427.772 444.028 449 438.767 449C433.507 449 401.944 455.704 401.944 431.124C401.944 406.543 412.465 333.918 414.569 331.684C416.673 329.449 413.517 321.628 416.673 318.276C419.829 314.924 456.653 291.461 470.33 286.991C484.007 282.522 503.194 277.203 503.194 277.203L607.103 324.98Z" fill="#2F2E41"/>
<path id="Vector_20" d="M401.944 474.698C401.944 474.698 417.725 469.112 425.09 485.871C432.455 502.631 429.298 507.1 429.298 507.1C429.298 507.1 405.1 516.039 400.892 511.569C399.061 509.625 393.247 508.949 387.262 508.807C378.147 508.59 375.722 494.895 384.33 491.706C384.587 491.611 384.847 491.528 385.11 491.458C393.527 489.223 401.944 474.698 401.944 474.698Z" fill="#2F2E41"/>
<path id="Vector_21" d="M535.56 98.1672C518.128 98.1672 503.997 83.1602 503.997 64.6481C503.997 46.136 518.128 31.129 535.56 31.129C552.992 31.129 567.123 46.136 567.123 64.6481C567.123 83.1602 552.992 98.1672 535.56 98.1672Z" fill="#FFB8B8"/>
<path id="Vector_22" d="M576.592 123.865C576.592 123.865 525.039 135.038 512.414 117.161C499.789 99.2844 494.528 167.44 494.528 167.44L488.216 238.947L497.684 278.053C497.684 278.053 547.133 320.511 562.915 323.862C578.696 327.214 602.894 329.449 602.894 329.449C602.894 329.449 595.529 205.428 595.529 203.194C595.529 200.959 576.592 123.865 576.592 123.865Z" fill="#6C63FF"/>
<path id="Vector_23" d="M560.913 102.91C560.913 102.91 572.383 95.9325 575.54 102.636C578.696 109.34 608.155 126.1 611.311 126.1C614.467 126.1 604.998 218.836 609.207 230.009C613.415 241.182 633.405 322.745 621.832 329.449C610.259 336.153 618.676 322.745 607.103 339.505C595.529 356.264 538.716 356.264 535.56 349.56C532.404 342.857 560.81 292.578 555.55 245.651C550.289 198.724 541.873 133.921 549.237 124.982C556.602 116.044 560.913 102.91 560.913 102.91Z" fill="#2F2E41"/>
<path id="Vector_24" d="M522.935 110.457L521.469 105.102C521.469 105.102 477.695 120.513 475.59 130.569C473.486 140.625 474.538 211.015 481.903 216.601C489.268 222.188 499.789 231.126 492.424 244.534C485.059 257.942 476.643 272.466 470.33 273.584C464.017 274.701 452.444 282.522 455.601 290.343C458.757 298.164 496.632 283.639 496.632 283.639C496.632 283.639 521.883 263.528 520.831 232.244C519.779 200.959 522.935 110.457 522.935 110.457Z" fill="#2F2E41"/>
<path id="Vector_25" d="M486.111 242.299L511.362 292.578C511.362 292.578 548.185 332.801 527.143 337.27C506.101 341.739 494.528 300.399 494.528 300.399L467.174 259.059L486.111 242.299Z" fill="#FFB8B8"/>
<path id="Vector_26" d="M546.248 15.7984C547.521 15.6983 548.795 15.9608 549.94 16.5587C550.975 17.3615 551.828 18.3996 552.436 19.5974C555.243 24.0802 558.901 27.8902 563.175 30.7827C566.366 32.9382 570.423 35.6258 569.877 39.5999C569.581 40.9324 569.054 42.1946 568.322 43.3219C565.368 48.8565 564.192 55.2623 564.972 61.57L556.198 48.0261C554.805 45.8762 552.386 43.4492 550.283 44.7994C549.579 45.2515 549.116 46.0624 548.383 46.459C546.634 47.4055 544.773 45.596 543.224 44.3143C537.885 39.8945 530.291 41.0524 523.647 42.4295C520.51 43.0796 517.064 43.9326 515.21 46.697C512.128 51.291 515.346 57.929 513.548 63.2362C513.044 62.8619 512.617 62.384 512.29 61.831C511.964 61.2779 511.746 60.6609 511.648 60.0165C509.139 60.0989 506.066 59.837 504.991 57.4285C504.664 56.4847 504.49 55.4889 504.476 54.4833C504.081 50.4377 502.219 46.7469 500.986 42.8965C499.752 39.046 499.216 34.5336 501.297 31.1197C502.059 29.963 502.978 28.9329 504.025 28.0631C515.839 17.5212 531.372 15.7827 546.248 15.7984Z" fill="#2F2E41"/>
<path id="Vector_27" d="M486.111 126.1L476.309 128.863C476.309 128.863 453.496 190.903 458.757 233.361C464.017 275.818 467.174 266.88 467.174 266.88C467.174 266.88 475.59 246.768 494.528 251.238L486.111 126.1Z" fill="#2F2E41"/>
<path id="Vector_28" d="M589.864 612.944C592.401 616.605 591.892 621.839 594.139 625.708C596.087 629.062 599.759 630.82 602.195 633.792C602.973 634.779 603.666 635.838 604.266 636.956C606.527 640.977 608.364 646.13 606.138 650.172C604.347 653.424 600.583 654.695 597.131 655.561C592.768 656.656 588.234 657.532 583.82 656.695C579.407 655.859 575.093 652.988 573.519 648.53C573.21 647.409 572.842 646.307 572.418 645.229C570.026 640.228 562.522 640.174 560.074 635.203C558.36 631.724 559.935 627.519 561.51 623.967L566.318 613.119C567.914 609.519 574.383 611.589 577.755 610.726C582.153 609.601 586.699 608.362 589.864 612.944Z" fill="#2F2E41"/>
<path id="Vector_29" d="M624.988 264.645L580.8 337.27C580.8 337.27 553.446 374.141 545.029 357.382C536.612 340.622 574.488 312.689 574.488 312.689L602.894 256.824L624.988 264.645Z" fill="#FFB8B8"/>
<path id="Vector_30" d="M602.894 128.334L611.311 126.1C611.311 126.1 628.145 131.686 632.353 155.15C636.561 178.613 633.405 272.466 628.145 273.584C622.884 274.701 602.163 257.242 598.846 260.944C595.53 264.645 606.051 245.651 602.894 235.595C599.738 225.54 602.894 128.334 602.894 128.334Z" fill="#2F2E41"/>
</g>
<g id="Components">
<path id="Vector_31" d="M42.6131 116H270.36C271.491 116 272.611 116.236 273.656 116.696C274.701 117.156 275.651 117.829 276.45 118.679C277.25 119.528 277.885 120.537 278.317 121.646C278.75 122.756 278.973 123.946 278.973 125.147V288.071C278.973 289.272 278.75 290.462 278.317 291.572C277.885 292.682 277.25 293.69 276.45 294.539C275.651 295.389 274.701 296.062 273.656 296.522C272.611 296.982 271.491 297.218 270.36 297.218H183.905L187.144 319.179C187.144 319.179 205.654 329.622 192.639 329.929C179.624 330.237 118.309 329.929 118.309 329.929C118.309 329.929 106.451 329.929 125.25 318.872L128.297 297.218H42.6131C41.482 297.218 40.3619 296.982 39.3168 296.522C38.2718 296.062 37.3222 295.389 36.5224 294.539C35.7225 293.69 35.0881 292.682 34.6553 291.572C34.2225 290.462 33.9998 289.272 34 288.071V125.147C33.9998 123.946 34.2225 122.756 34.6553 121.646C35.0881 120.537 35.7225 119.528 36.5224 118.679C37.3222 117.829 38.2718 117.156 39.3168 116.696C40.3619 116.236 41.482 116 42.6131 116V116Z" fill="#3F3D56"/>
<path id="Vector_32" d="M42.243 125.675H270.73V261.435H42.243V125.675Z" fill="#F2F2F2"/>
<path id="Vector_33" d="M156.486 122.911C155.688 122.911 155.04 122.223 155.04 121.375C155.04 120.527 155.688 119.839 156.486 119.839C157.285 119.839 157.932 120.527 157.932 121.375C157.932 122.223 157.285 122.911 156.486 122.911Z" fill="#F2F2F2"/>
<path id="Vector_34" d="M156.486 290.614C153.451 290.614 150.991 288.002 150.991 284.779C150.991 281.556 153.451 278.943 156.486 278.943C159.521 278.943 161.982 281.556 161.982 284.779C161.982 288.002 159.521 290.614 156.486 290.614Z" fill="#F2F2F2"/>
<path id="Vector_35" d="M165.049 346.515V349.587H320.652V347.13L320.438 346.515L316.603 335.458H168.231L165.049 346.515Z" fill="#3F3D56"/>
<path id="Vector_36" d="M105.169 343.509C105.452 344.795 106.522 346.153 108.94 347.437C117.617 352.044 135.26 346.208 135.26 346.208C135.26 346.208 148.853 343.751 148.853 337.301C148.471 337.024 148.073 336.772 147.662 336.549C144.014 334.499 131.918 329.442 110.472 336.763C108.892 337.289 107.481 338.272 106.395 339.6C105.914 340.102 105.553 340.718 105.339 341.397C105.126 342.077 105.068 342.8 105.169 343.509Z" fill="#3F3D56"/>
<path id="Vector_37" opacity="0.1" d="M105.169 343.509C115.789 347.83 125.255 348.153 134.97 340.987C138.644 338.103 143.093 336.547 147.662 336.549C144.014 334.499 131.918 329.442 110.472 336.763C108.892 337.289 107.481 338.272 106.395 339.6C105.914 340.102 105.553 340.718 105.339 341.398C105.126 342.077 105.068 342.8 105.169 343.509Z" fill="black"/>
<path id="Vector_38" d="M118.485 340.987C116.408 340.987 114.725 340.437 114.725 339.758C114.725 339.08 116.408 338.53 118.485 338.53C120.561 338.53 122.245 339.08 122.245 339.758C122.245 340.437 120.561 340.987 118.485 340.987Z" fill="#F2F2F2"/>
<path id="Vector_39" opacity="0.1" d="M165.049 346.516V349.587H320.652V347.13L320.438 346.516H165.049Z" fill="black"/>
<g id="Desktop-text">
<path id="Rectangle 55" d="M182.813 168H210.006V174.952H182.813V168Z" fill="#6C63FF"/>
<path id="Rectangle 56" d="M88.6463 168H98.214V174.952H88.6463V168Z" fill="#6C63FF"/>
<path id="Rectangle 57" d="M69.5107 168H79.0785V174.952H69.5107V168Z" fill="#6C63FF"/>
<path id="Rectangle 58" d="M108.285 168H173.245V174.952H108.285V168Z" fill="#6C63FF"/>
<path id="Rectangle 59" d="M217.056 212.921H244.248V219.873H217.056V212.921Z" fill="#6C63FF"/>
<path id="Rectangle 60" d="M122.889 212.921H132.456V219.873H122.889V212.921Z" fill="#6C63FF"/>
<path id="Rectangle 61" d="M103.753 212.921H113.321V219.873H103.753V212.921Z" fill="#6C63FF"/>
<path id="Rectangle 62" d="M142.528 212.921H207.488V219.873H142.528V212.921Z" fill="#6C63FF"/>
<path id="Rectangle 63" d="M104.76 183.509H131.953V190.461H104.76V183.509Z" fill="#6C63FF"/>
<path id="Rectangle 64" d="M68 183.509H95.1926V190.461H68V183.509Z" fill="#6C63FF"/>
<path id="Rectangle 66" d="M234.68 183.509H244.248V190.461H234.68V183.509Z" fill="#6C63FF"/>
<path id="Rectangle 67" d="M215.545 183.509H225.113V190.461H215.545V183.509Z" fill="#6C63FF"/>
<path id="Rectangle 68" d="M141.017 183.509H205.977V190.461H141.017V183.509Z" fill="#6C63FF"/>
<path id="Rectangle 69" d="M161.16 198.482H188.352V205.434H161.16V198.482Z" fill="#6C63FF"/>
<path id="Rectangle 70" d="M197.92 198.482H225.113V205.434H197.92V198.482Z" fill="#6C63FF"/>
<path id="Rectangle 71" d="M234.68 198.482H244.248V205.434H234.68V198.482Z" fill="#6C63FF"/>
<path id="Rectangle 73" d="M68 198.482H77.5678V205.434H68V198.482Z" fill="#6C63FF"/>
<path id="Rectangle 74" d="M87.1356 198.482H152.096V205.434H87.1356V198.482Z" fill="#6C63FF"/>
</g>
</g>
</g>
<defs>
<clipPath id="clip0">
<rect width="650" height="650" fill="white" transform="matrix(-1 0 0 1 650 0)"/>
</clipPath>
</defs>
</svg>
