<svg width="665" height="665" viewBox="0 0 665 665" fill="none" xmlns="http://www.w3.org/2000/svg">
<g id="svg-skill">
<circle id="Ellipse 16" cx="420" cy="210" r="200" fill="#354A7B"/>
<circle id="Ellipse 15" cx="398" cy="397" r="250" fill="#FFC700"/>
<g id="Ellipse 14" filter="url(#filter0_d)">
<circle cx="332.5" cy="322.5" r="287.5" fill="#F4F7F9"/>
</g>
<g id="Ellipse 24" filter="url(#filter1_d)">
<circle cx="327.5" cy="322.5" r="219.5" fill="#F4F7F9"/>
</g>
<g id="Ellipse 25" filter="url(#filter2_d)">
<circle cx="328" cy="325" r="150" fill="#F4F7F9"/>
</g>
<circle id="Ellipse 17" cx="132" cy="458" r="58" fill="#ECF7FF"/>
<circle id="Ellipse 23" cx="132" cy="184" r="58" fill="#ECF7FF"/>
<circle id="Ellipse 18" cx="328" cy="116" r="58" fill="#ECF7FF"/>
<circle id="Ellipse 19" cx="328" cy="533" r="58" fill="#ECF7FF"/>
<circle id="Ellipse 21" cx="524" cy="184" r="58" fill="#ECF7FF"/>
<circle id="Ellipse 22" cx="524" cy="458" r="58" fill="#ECF7FF"/>
<circle id="Ellipse 20" cx="328" cy="323" r="100" fill="#E5EBEF"/>
<g id="api">
<path id="Vector" d="M120.28 453.625H116.22L110.75 472.375H114.767L115.882 468.544H120.618L121.733 472.375H125.75L120.28 453.625ZM116.795 465.419L118.25 460.438L119.705 465.422L116.795 465.419Z" fill="#FF5C00"/>
<path id="Vector_2" d="M138.86 453.625H130.11V472.375H133.86V466.125H138.86C139.355 466.137 139.847 466.023 140.306 465.792C140.765 465.56 141.182 465.215 141.532 464.778C141.882 464.34 142.158 463.819 142.343 463.245C142.528 462.671 142.619 462.056 142.61 461.438V458.313C142.619 457.694 142.528 457.079 142.343 456.505C142.158 455.931 141.882 455.41 141.532 454.972C141.182 454.535 140.765 454.19 140.306 453.959C139.847 453.727 139.355 453.614 138.86 453.625V453.625ZM138.86 461.438H133.86V458.313H138.86V461.438Z" fill="#FF5C00"/>
<path id="Vector_3" d="M147 453.625H150.75V472.375H147V453.625Z" fill="#FF5C00"/>
<path id="Vector_4" d="M157 444.25V481.75H107V444.25H157ZM157 438H107C105.674 438 104.402 438.658 103.464 439.831C102.527 441.003 102 442.592 102 444.25V481.75C102 483.408 102.527 484.997 103.464 486.169C104.402 487.342 105.674 488 107 488H157C158.326 488 159.598 487.342 160.536 486.169C161.473 484.997 162 483.408 162 481.75V444.25C162 442.592 161.473 441.003 160.536 439.831C159.598 438.658 158.326 438 157 438V438Z" fill="#FF5C00"/>
</g>
<g id="C++">
<path id="Vector_5" d="M376.761 299.995C376.033 298.817 374.964 297.833 373.664 297.145L332.336 275.941C330.996 275.323 329.509 275 328 275C326.491 275 325.004 275.323 323.664 275.941L282.336 297.145C281.069 297.867 280.015 298.847 279.261 300.004C278.507 301.161 278.075 302.461 278 303.796V346.204C278.041 347.544 278.467 348.853 279.239 350.005C279.967 351.183 281.036 352.167 282.336 352.855L323.664 374.059C325.004 374.677 326.491 375 328 375C329.509 375 330.996 374.677 332.336 374.059L373.664 352.855C374.964 352.167 376.033 351.183 376.761 350.005C377.533 348.853 377.959 347.544 378 346.204V303.796C377.959 302.456 377.533 301.147 376.761 299.995V299.995ZM328 354.606C322.166 354.582 316.441 353.2 311.398 350.596C306.354 347.992 302.168 344.258 299.258 339.767C296.348 335.276 294.817 330.186 294.816 325.005C294.815 319.823 296.345 314.732 299.254 310.241C302.162 305.749 306.347 302.014 311.39 299.409C316.432 296.804 322.157 295.42 327.991 295.395C333.824 295.37 339.563 296.706 344.634 299.268C349.704 301.831 353.929 305.53 356.885 309.997L350.523 313.548L348.496 314.548L342.865 317.599C341.067 314.638 338.201 312.299 334.727 310.959C331.253 309.619 327.373 309.354 323.71 310.208C320.046 311.062 316.812 312.985 314.527 315.667C312.241 318.35 311.037 321.637 311.108 325C311.092 327.603 311.87 330.16 313.36 332.401C314.866 334.606 316.986 336.429 319.516 337.694C322.046 338.959 324.9 339.623 327.803 339.623C330.706 339.623 333.56 338.959 336.09 337.694C338.62 336.429 340.74 334.606 342.245 332.401L356.885 340.003C353.921 344.462 349.696 348.155 344.629 350.717C339.563 353.278 333.83 354.619 328 354.606ZM361.333 326.65H357.617V330.001H353.957V326.7H350.523V323.4H354.239V319.999H357.899V323.3H361.615L361.333 326.65ZM375.241 326.65H371.525V330.001H367.809V326.7H364.149V323.4H367.809V319.999H371.525V323.3H375.241V326.65Z" fill="#34497A"/>
</g>
<g id="CSS">
<path id="Vector_6" d="M102 154H162L156.544 207.908L131.937 214L107.464 207.905L102 154ZM150.83 165.031L113.174 165.024L113.781 171.577L142.711 171.584L141.985 178.375H123.011L123.698 184.807H141.362L140.317 193.616L132.002 195.626L123.56 193.599L123.018 188.324H115.564L116.394 197.963L132.002 202.216L147.353 198.393L150.83 165.031V165.031Z" fill="#0085FF" fill-opacity="0.75"/>
</g>
<g id="HTML">
<path id="Vector_7" d="M494 154H554L548.541 207.905L523.933 214L499.466 207.905L494 154V154ZM514.088 178.372L513.428 171.58L542.163 171.587L542.823 165.035L505.173 165.028L507.164 185.048H533.237L532.31 193.613L523.998 195.622L515.553 193.603L515.015 188.329H507.561L508.503 198.753L523.998 202.378L539.363 198.773L541.492 178.376H514.088V178.372V178.372Z" fill="#E11B1B"/>
</g>
<g id="JS">
<path id="Vector_8" d="M303 96H353V146H303V96ZM348.903 134.075C348.539 131.794 347.053 129.878 342.647 128.089C341.114 127.369 339.411 126.872 338.9 125.717C338.711 125.028 338.683 124.656 338.806 124.247C339.119 122.903 340.714 122.5 341.964 122.872C342.778 123.122 343.528 123.747 343.997 124.75C346.15 123.342 346.15 123.342 347.653 122.406C347.089 121.533 346.808 121.153 346.433 120.778C345.119 119.311 343.369 118.561 340.528 118.625L339.061 118.811C337.653 119.156 336.308 119.908 335.497 120.906C333.122 123.594 333.808 128.281 336.683 130.222C339.525 132.347 343.686 132.814 344.217 134.814C344.717 137.253 342.406 138.033 340.119 137.753C338.433 137.375 337.494 136.533 336.464 134.969L332.653 137.158C333.089 138.156 333.589 138.594 334.339 139.469C337.964 143.125 347.028 142.939 348.653 137.375C348.711 137.189 349.153 135.908 348.808 133.939L348.903 134.075ZM330.189 118.981H325.506C325.506 123.017 325.486 127.031 325.486 131.075C325.486 133.642 325.617 135.997 325.197 136.722C324.511 138.158 322.736 137.975 321.933 137.719C321.108 137.314 320.689 136.75 320.203 135.939C320.072 135.722 319.975 135.533 319.939 135.533L316.139 137.878C316.775 139.192 317.703 140.319 318.9 141.036C320.681 142.1 323.072 142.444 325.578 141.883C327.211 141.411 328.619 140.442 329.35 138.942C330.417 137.006 330.189 134.628 330.181 131.972C330.203 127.692 330.181 123.408 330.181 119.097L330.189 118.981Z" fill="#FFC700"/>
</g>
<g id="node">
<g id="Vector_9">
<path d="M329.985 500C329.073 500 328.16 500.208 327.373 500.623L302.6 513.823C301 514.677 300 516.292 300 518V541.954C300 543.685 301 545.277 302.6 546.131L309.1 549.592C312.25 551.023 313.375 551.023 314.8 551.023C319.475 551.023 322.15 548.415 322.15 543.892V519.177C322.15 518.999 322.074 518.829 321.938 518.704C321.802 518.578 321.617 518.508 321.425 518.508H318.3C318.204 518.506 318.11 518.523 318.021 518.556C317.932 518.589 317.852 518.639 317.784 518.701C317.717 518.763 317.663 518.838 317.627 518.919C317.591 519.001 317.574 519.089 317.575 519.177V543.869C317.575 545.9 315.3 547.885 311.625 546.2L304.825 542.577C304.703 542.517 304.601 542.427 304.531 542.317C304.46 542.207 304.424 542.082 304.425 541.954V518.023C304.425 517.746 304.575 517.515 304.825 517.377L329.6 504.177C329.716 504.109 329.85 504.073 329.987 504.073C330.125 504.073 330.259 504.109 330.375 504.177L355.15 517.377C355.4 517.515 355.55 517.746 355.55 518V541.954C355.55 542.208 355.4 542.462 355.175 542.577L330.375 555.8C330.255 555.857 330.122 555.886 329.987 555.886C329.853 555.886 329.72 555.857 329.6 555.8L323.225 552.315C323.139 552.257 323.038 552.222 322.932 552.214C322.826 552.206 322.72 552.225 322.625 552.269C320.85 553.192 320.525 553.308 318.875 553.838C318.475 553.954 317.85 554.185 319.1 554.831L327.375 559.354C328.175 559.769 329.075 560 329.975 560C330.9 560 331.8 559.769 332.6 559.354L357.4 546.131C359 545.277 360 543.685 360 541.954V518.023C360 516.292 359 514.7 357.4 513.846L332.6 500.623C331.81 500.208 330.9 500 329.985 500ZM336.65 518.475C329.575 518.475 325.35 521.245 325.35 525.86C325.35 530.868 329.55 532.248 336.35 532.871C344.475 533.609 345.1 534.722 345.1 536.198C345.1 538.737 342.875 539.822 337.65 539.822C331.075 539.822 329.625 538.296 329.15 535.296C329.126 535.141 329.041 535 328.913 534.898C328.784 534.796 328.62 534.741 328.45 534.742H325.225C325.039 534.742 324.861 534.81 324.73 534.932C324.599 535.053 324.525 535.217 324.525 535.388C324.525 539.242 326.8 543.835 337.65 543.835C345.5 543.835 350 540.973 350 535.988C350 531.05 346.375 529.735 338.775 528.788C331.05 527.865 330.275 527.381 330.275 525.719C330.275 524.335 330.95 522.512 336.65 522.512C341.725 522.512 343.625 523.527 344.4 526.688C344.475 526.988 344.75 527.219 345.1 527.219H348.325C348.525 527.219 348.7 527.127 348.85 526.988C348.918 526.921 348.969 526.841 348.999 526.753C349.03 526.665 349.038 526.572 349.025 526.481C348.525 521.035 344.6 518.473 336.65 518.473V518.475Z" fill="#178A30"/>
<path d="M329.985 500C329.073 500 328.16 500.208 327.373 500.623L302.6 513.823C301 514.677 300 516.292 300 518V541.954C300 543.685 301 545.277 302.6 546.131L309.1 549.592C312.25 551.023 313.375 551.023 314.8 551.023C319.475 551.023 322.15 548.415 322.15 543.892V519.177C322.15 518.999 322.074 518.829 321.938 518.704C321.802 518.578 321.617 518.508 321.425 518.508H318.3C318.204 518.506 318.11 518.523 318.021 518.556C317.932 518.589 317.852 518.639 317.784 518.701C317.717 518.763 317.663 518.838 317.627 518.919C317.591 519.001 317.574 519.089 317.575 519.177V543.869C317.575 545.9 315.3 547.885 311.625 546.2L304.825 542.577C304.703 542.517 304.601 542.427 304.531 542.317C304.46 542.207 304.424 542.082 304.425 541.954V518.023C304.425 517.746 304.575 517.515 304.825 517.377L329.6 504.177C329.716 504.109 329.85 504.073 329.987 504.073C330.125 504.073 330.259 504.109 330.375 504.177L355.15 517.377C355.4 517.515 355.55 517.746 355.55 518V541.954C355.55 542.208 355.4 542.462 355.175 542.577L330.375 555.8C330.255 555.857 330.122 555.886 329.987 555.886C329.853 555.886 329.72 555.857 329.6 555.8L323.225 552.315C323.139 552.257 323.038 552.222 322.932 552.214C322.826 552.206 322.72 552.225 322.625 552.269C320.85 553.192 320.525 553.308 318.875 553.838C318.475 553.954 317.85 554.185 319.1 554.831L327.375 559.354C328.175 559.769 329.075 560 329.975 560C330.9 560 331.8 559.769 332.6 559.354L357.4 546.131C359 545.277 360 543.685 360 541.954V518.023C360 516.292 359 514.7 357.4 513.846L332.6 500.623C331.81 500.208 330.9 500 329.985 500ZM336.65 518.475C329.575 518.475 325.35 521.245 325.35 525.86C325.35 530.868 329.55 532.248 336.35 532.871C344.475 533.609 345.1 534.722 345.1 536.198C345.1 538.737 342.875 539.822 337.65 539.822C331.075 539.822 329.625 538.296 329.15 535.296C329.126 535.141 329.041 535 328.913 534.898C328.784 534.796 328.62 534.741 328.45 534.742H325.225C325.039 534.742 324.861 534.81 324.73 534.932C324.599 535.053 324.525 535.217 324.525 535.388C324.525 539.242 326.8 543.835 337.65 543.835C345.5 543.835 350 540.973 350 535.988C350 531.05 346.375 529.735 338.775 528.788C331.05 527.865 330.275 527.381 330.275 525.719C330.275 524.335 330.95 522.512 336.65 522.512C341.725 522.512 343.625 523.527 344.4 526.688C344.475 526.988 344.75 527.219 345.1 527.219H348.325C348.525 527.219 348.7 527.127 348.85 526.988C348.918 526.921 348.969 526.841 348.999 526.753C349.03 526.665 349.038 526.572 349.025 526.481C348.525 521.035 344.6 518.473 336.65 518.473V518.475Z" stroke="#178A30"/>
</g>
</g>
<g id="database">
<path id="Vector_10" d="M554 440C554 433.496 540.264 428 524 428C507.736 428 494 433.496 494 440V446C494 452.504 507.736 458 524 458C540.264 458 554 452.504 554 446V440ZM524 479C507.736 479 494 473.504 494 467V476C494 482.504 507.736 488 524 488C540.264 488 554 482.504 554 476V467C554 473.504 540.264 479 524 479Z" fill="url(#paint0_linear)"/>
<path id="Vector_11" d="M554 452C554 458.504 540.264 464 524 464C507.736 464 494 458.504 494 452V461C494 467.504 507.736 473 524 473C540.264 473 554 467.504 554 461V452Z" fill="#61AFF7"/>
</g>
</g>
<defs>
<filter id="filter0_d" x="0" y="0" width="665" height="665" filterUnits="userSpaceOnUse" color-interpolation-filters="sRGB">
<feFlood flood-opacity="0" result="BackgroundImageFix"/>
<feColorMatrix in="SourceAlpha" type="matrix" values="0 0 0 0 0 0 0 0 0 0 0 0 0 0 0 0 0 0 127 0" result="hardAlpha"/>
<feMorphology radius="5" operator="dilate" in="SourceAlpha" result="effect1_dropShadow"/>
<feOffset dy="10"/>
<feGaussianBlur stdDeviation="20"/>
<feComposite in2="hardAlpha" operator="out"/>
<feColorMatrix type="matrix" values="0 0 0 0 0 0 0 0 0 0 0 0 0 0 0 0 0 0 0.25 0"/>
<feBlend mode="normal" in2="BackgroundImageFix" result="effect1_dropShadow"/>
<feBlend mode="normal" in="SourceGraphic" in2="effect1_dropShadow" result="shape"/>
</filter>
<filter id="filter1_d" x="63" y="66" width="529" height="529" filterUnits="userSpaceOnUse" color-interpolation-filters="sRGB">
<feFlood flood-opacity="0" result="BackgroundImageFix"/>
<feColorMatrix in="SourceAlpha" type="matrix" values="0 0 0 0 0 0 0 0 0 0 0 0 0 0 0 0 0 0 127 0" result="hardAlpha"/>
<feMorphology radius="5" operator="dilate" in="SourceAlpha" result="effect1_dropShadow"/>
<feOffset dy="8"/>
<feGaussianBlur stdDeviation="20"/>
<feComposite in2="hardAlpha" operator="out"/>
<feColorMatrix type="matrix" values="0 0 0 0 0 0 0 0 0 0 0 0 0 0 0 0 0 0 0.25 0"/>
<feBlend mode="normal" in2="BackgroundImageFix" result="effect1_dropShadow"/>
<feBlend mode="normal" in="SourceGraphic" in2="effect1_dropShadow" result="shape"/>
</filter>
<filter id="filter2_d" x="158" y="159" width="340" height="340" filterUnits="userSpaceOnUse" color-interpolation-filters="sRGB">
<feFlood flood-opacity="0" result="BackgroundImageFix"/>
<feColorMatrix in="SourceAlpha" type="matrix" values="0 0 0 0 0 0 0 0 0 0 0 0 0 0 0 0 0 0 127 0" result="hardAlpha"/>
<feOffset dy="4"/>
<feGaussianBlur stdDeviation="10"/>
<feComposite in2="hardAlpha" operator="out"/>
<feColorMatrix type="matrix" values="0 0 0 0 0 0 0 0 0 0 0 0 0 0 0 0 0 0 0.25 0"/>
<feBlend mode="normal" in2="BackgroundImageFix" result="effect1_dropShadow"/>
<feBlend mode="normal" in="SourceGraphic" in2="effect1_dropShadow" result="shape"/>
</filter>
<linearGradient id="paint0_linear" x1="524" y1="428" x2="524" y2="488" gradientUnits="userSpaceOnUse">
<stop offset="0.0156053" stop-color="#1B8CF6"/>
<stop offset="0.640631" stop-color="#3D9FFA" stop-opacity="0"/>
<stop offset="1" stop-color="#3197F6" stop-opacity="0.85714"/>
</linearGradient>
</defs>
</svg>
