<svg viewBox="0 0 433 342" fill="none" xmlns="http://www.w3.org/2000/svg">
<path d="M180.786 20.118H99.2322C94.8139 20.118 91.2322 23.6998 91.2322 28.118V103.172C91.2322 107.59 94.8139 111.172 99.2322 111.172H180.786C185.204 111.172 188.786 107.59 188.786 103.172V28.118C188.786 23.6998 185.204 20.118 180.786 20.118Z" fill="#112B46"/>
<path d="M183.971 20.118H96.0472C93.3879 20.118 91.2322 22.2738 91.2322 24.933C91.2322 27.5923 93.3879 29.748 96.0472 29.748H183.971C186.63 29.748 188.786 27.5923 188.786 24.933C188.786 22.2738 186.63 20.118 183.971 20.118Z" fill="#1D262D"/>
<path d="M167.699 25.0421C167.699 26.0171 166.909 26.8071 165.934 26.8071C164.959 26.8071 164.169 26.0171 164.169 25.0421C164.169 24.0671 164.959 23.2771 165.934 23.2771C166.909 23.2771 167.699 24.0671 167.699 25.0421Z" fill="#606BF1"/>
<path d="M175.069 25.0421C175.069 26.0171 174.279 26.8071 173.304 26.8071C172.329 26.8071 171.539 26.0171 171.539 25.0421C171.539 24.0671 172.329 23.2771 173.304 23.2771C174.279 23.2771 175.069 24.0671 175.069 25.0421Z" fill="#FBD15B"/>
<path d="M181.913 25.2281C181.913 26.2031 181.123 26.9931 180.148 26.9931C179.173 26.9931 178.383 26.2031 178.383 25.2281C178.383 24.2531 179.173 23.4631 180.148 23.4631C181.123 23.4631 181.913 24.2531 181.913 25.2281Z" fill="#FF8578"/>
<path d="M121.815 38.7001H109.159C108.838 38.7001 108.578 38.96 108.578 39.2806C108.578 39.6012 108.838 39.8611 109.159 39.8611H121.815C122.135 39.8611 122.395 39.6012 122.395 39.2806C122.395 38.96 122.135 38.7001 121.815 38.7001Z" fill="#FF8578"/>
<path d="M138.032 38.7001H125.376C125.055 38.7001 124.795 38.96 124.795 39.2806C124.795 39.6012 125.055 39.8611 125.376 39.8611H138.032C138.352 39.8611 138.612 39.6012 138.612 39.2806C138.612 38.96 138.352 38.7001 138.032 38.7001Z" fill="#FBD15B"/>
<path d="M133.698 44.9551H113.433C113.112 44.9551 112.852 45.215 112.852 45.5356C112.852 45.8562 113.112 46.1161 113.433 46.1161H133.698C134.018 46.1161 134.278 45.8562 134.278 45.5356C134.278 45.215 134.018 44.9551 133.698 44.9551Z" fill="#606BF1"/>
<path d="M148.131 44.9551H138.401C138.08 44.9551 137.82 45.215 137.82 45.5356C137.82 45.8562 138.08 46.1161 138.401 46.1161H148.131C148.451 46.1161 148.711 45.8562 148.711 45.5356C148.711 45.215 148.451 44.9551 148.131 44.9551Z" fill="#FF8578"/>
<path d="M129.114 51.2111H120.865C120.544 51.2111 120.284 51.471 120.284 51.7916C120.284 52.1122 120.544 52.3721 120.865 52.3721H129.114C129.434 52.3721 129.694 52.1122 129.694 51.7916C129.694 51.471 129.434 51.2111 129.114 51.2111Z" fill="#FBD15B"/>
<path d="M165.77 51.2111H135.714C135.393 51.2111 135.133 51.471 135.133 51.7916C135.133 52.1122 135.393 52.3721 135.714 52.3721H165.77C166.09 52.3721 166.35 52.1122 166.35 51.7916C166.35 51.471 166.09 51.2111 165.77 51.2111Z" fill="#FBD15B"/>
<path d="M162.69 57.467H128.174C127.853 57.467 127.593 57.7269 127.593 58.0475C127.593 58.3682 127.853 58.6281 128.174 58.6281H162.69C163.01 58.6281 163.27 58.3682 163.27 58.0475C163.27 57.7269 163.01 57.467 162.69 57.467Z" fill="#606BF1"/>
<path d="M129.073 63.7231H119.254C118.933 63.7231 118.673 63.983 118.673 64.3036C118.673 64.6242 118.933 64.8841 119.254 64.8841H129.073C129.393 64.8841 129.653 64.6242 129.653 64.3036C129.653 63.983 129.393 63.7231 129.073 63.7231Z" fill="#FF8578"/>
<path d="M144.751 63.7231H134.932C134.611 63.7231 134.351 63.983 134.351 64.3036C134.351 64.6242 134.611 64.8841 134.932 64.8841H144.751C145.071 64.8841 145.331 64.6242 145.331 64.3036C145.331 63.983 145.071 63.7231 144.751 63.7231Z" fill="#606BF1"/>
<path d="M123.971 96.178H109.159C108.838 96.178 108.578 96.4379 108.578 96.7585C108.578 97.0791 108.838 97.339 109.159 97.339H123.971C124.291 97.339 124.551 97.0791 124.551 96.7585C124.551 96.4379 124.291 96.178 123.971 96.178Z" fill="#FF8578"/>
<path d="M145.539 96.178H130.727C130.406 96.178 130.146 96.4379 130.146 96.7585C130.146 97.0791 130.406 97.339 130.727 97.339H145.539C145.86 97.339 146.12 97.0791 146.12 96.7585C146.12 96.4379 145.86 96.178 145.539 96.178Z" fill="#FBD15B"/>
<path d="M166.526 96.178H151.714C151.393 96.178 151.133 96.4379 151.133 96.7585C151.133 97.0791 151.393 97.339 151.714 97.339H166.526C166.846 97.339 167.106 97.0791 167.106 96.7585C167.106 96.4379 166.846 96.178 166.526 96.178Z" fill="#FF8578"/>
<path d="M143.489 89.9231H113.433C113.112 89.9231 112.852 90.183 112.852 90.5036C112.852 90.8242 113.112 91.0841 113.433 91.0841H143.489C143.809 91.0841 144.069 90.8242 144.069 90.5036C144.069 90.183 143.809 89.9231 143.489 89.9231Z" fill="#606BF1"/>
<path d="M179.573 89.9231H149.517C149.196 89.9231 148.936 90.183 148.936 90.5036C148.936 90.8242 149.196 91.0841 149.517 91.0841H179.573C179.893 91.0841 180.153 90.8242 180.153 90.5036C180.153 90.183 179.893 89.9231 179.573 89.9231Z" fill="#FF8578"/>
<path d="M150.682 83.667H120.865C120.544 83.667 120.284 83.9269 120.284 84.2475C120.284 84.5681 120.544 84.828 120.865 84.828H150.682C151.002 84.828 151.262 84.5681 151.262 84.2475C151.262 83.9269 151.002 83.667 150.682 83.667Z" fill="#FF8578"/>
<path d="M162.005 83.667H154.544C154.223 83.667 153.963 83.9269 153.963 84.2475C153.963 84.5681 154.223 84.828 154.544 84.828H162.005C162.325 84.828 162.585 84.5681 162.585 84.2475C162.585 83.9269 162.325 83.667 162.005 83.667Z" fill="#FBD15B"/>
<path d="M129.343 77.411H118.842C118.521 77.411 118.261 77.6709 118.261 77.9915C118.261 78.3121 118.521 78.572 118.842 78.572H129.343C129.663 78.572 129.923 78.3121 129.923 77.9915C129.923 77.6709 129.663 77.411 129.343 77.411Z" fill="#FBD15B"/>
<path d="M147.198 77.411H136.697C136.376 77.411 136.116 77.6709 136.116 77.9915C136.116 78.3121 136.376 78.572 136.697 78.572H147.198C147.518 78.572 147.778 78.3121 147.778 77.9915C147.778 77.6709 147.518 77.411 147.198 77.411Z" fill="#606BF1"/>
<path d="M166.36 77.411H155.859C155.538 77.411 155.278 77.6709 155.278 77.9915C155.278 78.3121 155.538 78.572 155.859 78.572H166.36C166.68 78.572 166.94 78.3121 166.94 77.9915C166.94 77.6709 166.68 77.411 166.36 77.411Z" fill="#FF8578"/>
<path d="M147.551 71.155H132.36C132.039 71.155 131.779 71.4149 131.779 71.7355C131.779 72.0561 132.039 72.316 132.36 72.316H147.551C147.871 72.316 148.131 72.0561 148.131 71.7355C148.131 71.4149 147.871 71.155 147.551 71.155Z" fill="#FBD15B"/>
<path d="M125.03 71.155H109.839C109.518 71.155 109.258 71.4149 109.258 71.7355C109.258 72.0561 109.518 72.316 109.839 72.316H125.03C125.35 72.316 125.61 72.0561 125.61 71.7355C125.61 71.4149 125.35 71.155 125.03 71.155Z" fill="#606BF1"/>
<path d="M99.5352 38.3286C99.5352 38.7389 99.8678 39.0721 100.278 39.0721C100.688 39.0721 101.021 38.7389 101.021 38.3286C101.021 37.9182 100.688 37.5851 100.278 37.5851C99.8678 37.5851 99.5352 37.9182 99.5352 38.3286Z" fill="#F9FBFC"/>
<path d="M101.022 91.383C101.022 91.7934 100.689 92.1261 100.279 92.1261V92.1261C99.8688 92.1261 99.5361 91.7934 99.5361 91.383V89.8381C99.5361 89.4277 99.8688 89.095 100.279 89.095V89.095C100.689 89.095 101.022 89.4277 101.022 89.8381V91.383ZM101.022 83.804C101.022 84.2144 100.689 84.547 100.279 84.547V84.547C99.8688 84.547 99.5361 84.2144 99.5361 83.804V82.2591C99.5361 81.8487 99.8688 81.5161 100.279 81.5161V81.5161C100.689 81.5161 101.022 81.8487 101.022 82.2591V83.804ZM101.022 76.224C101.022 76.6344 100.689 76.967 100.279 76.967V76.967C99.8688 76.967 99.5361 76.6344 99.5361 76.224V74.678C99.5361 74.2677 99.8688 73.935 100.279 73.935V73.935C100.689 73.935 101.022 74.2677 101.022 74.678V76.224ZM101.022 68.645C101.022 69.0554 100.689 69.388 100.279 69.388V69.388C99.8688 69.388 99.5361 69.0554 99.5361 68.645V67.0991C99.5361 66.6887 99.8688 66.356 100.279 66.356V66.356C100.689 66.356 101.022 66.6887 101.022 67.0991V68.645ZM101.022 61.066C101.022 61.4764 100.689 61.8091 100.279 61.8091V61.8091C99.8688 61.8091 99.5361 61.4764 99.5361 61.066V59.52C99.5361 59.1097 99.8688 58.777 100.279 58.777V58.777C100.689 58.777 101.022 59.1097 101.022 59.52V61.066ZM101.022 53.487C101.022 53.8974 100.689 54.23 100.279 54.23V54.23C99.8688 54.23 99.5361 53.8974 99.5361 53.487V51.941C99.5361 51.5307 99.8688 51.198 100.279 51.198V51.198C100.689 51.198 101.022 51.5307 101.022 51.941V53.487ZM101.022 45.907C101.022 46.3174 100.689 46.65 100.279 46.65V46.65C99.8688 46.65 99.5361 46.3174 99.5361 45.907V44.361C99.5361 43.9507 99.8688 43.618 100.279 43.618V43.618C100.689 43.618 101.022 43.9507 101.022 44.361V45.907Z" fill="#F9FBFC"/>
<path d="M99.5352 97.4176C99.5352 97.8279 99.8678 98.1611 100.278 98.1611C100.688 98.1611 101.021 97.8279 101.021 97.4176C101.021 97.0072 100.688 96.6741 100.278 96.6741C99.8678 96.6741 99.5352 97.0072 99.5352 97.4176Z" fill="#F9FBFC"/>
<path d="M286.106 0.775024H213.776C211.567 0.775024 209.776 2.56589 209.776 4.77502V46.29C209.776 48.4992 211.567 50.29 213.776 50.29H286.106C288.315 50.29 290.106 48.4992 290.106 46.29V4.77502C290.106 2.56589 288.315 0.775024 286.106 0.775024Z" fill="#EC78FF"/>
<path d="M240.975 20.6901L231.418 24.7691L240.975 28.7881L239.724 31.6761L228.262 26.5551V23.0121L239.724 17.8611L240.975 20.6901Z" fill="#F9FBFC"/>
<path d="M255.059 11.253L248.122 37.899L244.817 37.125L251.784 10.509L255.059 11.253Z" fill="#F9FBFC"/>
<path d="M271.646 23.013V26.556L260.183 31.677L258.933 28.789L268.46 24.77L258.933 20.691L260.183 17.863L271.646 23.013Z" fill="#F9FBFC"/>
<path d="M325.101 96.7001H295.347C290.929 96.7001 287.347 100.282 287.347 104.7V121.296C287.347 125.714 290.929 129.296 295.347 129.296H325.101C329.519 129.296 333.101 125.714 333.101 121.296V104.7C333.101 100.282 329.519 96.7001 325.101 96.7001Z" fill="#606BF1"/>
<path d="M306.486 103.737C305.014 103.737 304.524 104.134 304.524 105.232V110.138C304.524 112.054 303.73 112.638 302.398 113.012C303.73 113.362 304.524 113.946 304.524 115.838V120.744C304.524 121.842 305.038 122.239 306.486 122.239V124.388C302.772 124.388 301.72 123.197 301.72 120.72V116.071C301.72 114.739 301.37 114.226 300.155 114.226V111.773C301.37 111.773 301.72 111.236 301.72 109.904V105.255C301.72 102.755 302.772 101.587 306.486 101.587V103.737Z" fill="#F1F2F2"/>
<path d="M318.728 105.256V109.905C318.728 111.237 319.078 111.774 320.317 111.774V114.227C319.079 114.227 318.728 114.741 318.728 116.072V120.721C318.728 123.197 317.677 124.389 313.962 124.389V122.24C315.41 122.24 315.924 121.843 315.924 120.745V115.839C315.924 113.947 316.718 113.363 318.05 113.013C316.718 112.639 315.924 112.055 315.924 110.139V105.233C315.924 104.135 315.434 103.738 313.962 103.738V101.589C317.677 101.588 318.728 102.756 318.728 105.256Z" fill="#F1F2F2"/>
<path d="M103.512 7.87598H68.1831C63.7648 7.87598 60.1831 11.4577 60.1831 15.876V34.208C60.1831 38.6263 63.7648 42.208 68.1831 42.208H103.512C107.93 42.208 111.512 38.6263 111.512 34.208V15.876C111.512 11.4577 107.93 7.87598 103.512 7.87598Z" fill="#FBD15B"/>
<path d="M77.1712 17.731C74.7202 20.798 74.7582 25.28 77.2552 28.31C78.5717 29.9077 80.3239 30.8833 82.1728 31.2374C85.9188 31.9547 90.3857 31.9195 93.0827 34.6164L93.8312 35.365C94.0582 35.592 94.4272 35.592 94.6542 35.365L96.1682 33.852C96.3952 33.625 96.3952 33.256 96.1682 33.029L95.4194 32.2802C92.7226 29.5833 92.7576 25.1168 92.0404 21.371C91.7344 19.7728 90.9641 18.2469 89.7292 17.012C86.2192 13.502 80.3592 13.742 77.1712 17.731ZM87.9842 27.182C85.6612 29.505 81.8822 29.504 79.5592 27.182C77.2362 24.859 77.2362 21.08 79.5592 18.757C81.8822 16.434 85.6612 16.434 87.9842 18.757C90.3062 21.079 90.3072 24.859 87.9842 27.182Z" fill="#F9FBFC"/>
<path d="M260.826 113.922C260.714 115.056 259.164 126.895 246.99 126.895C234.208 126.895 236.349 114.241 236.349 114.241L236.333 114.161C237.579 113.905 238.921 113.809 240.343 113.969V107.977L254.85 99.8611H255.377V113.841C255.377 113.841 257.678 113.57 260.826 113.922Z" fill="url(#paint0_radial_1009_927)"/>
<path d="M253.78 73.1171C255.837 75.2031 257.392 77.9031 258.14 81.2021C259.534 87.3481 258.222 93.8511 256.439 99.7741C256.134 100.787 255.788 101.809 255.162 102.662C254.715 103.27 254.141 103.772 253.571 104.267C250.99 106.514 248.411 108.762 245.836 111.016C244.091 112.544 233.347 113.817 231.296 112.351C223.394 106.701 221.874 90.3331 223.456 81.9651C226.08 68.0821 243.923 63.1181 253.78 73.1171Z" fill="url(#paint1_radial_1009_927)"/>
<path d="M249.342 90.883C249.447 89.547 250.821 88.0831 252.2 88.9501C253.628 89.8481 253.292 92.221 252.7 93.527C252.236 94.551 250.684 95.6721 249.633 94.7201C248.752 93.9221 250.121 92.9801 250.166 92.2521C250.206 91.5961 248.894 91.126 249.431 90.424" fill="#F7B094"/>
<path d="M249.595 97.061C251.035 97.493 253.474 96.395 254.092 94.389C254.709 92.383 254.643 90.093 254.643 90.093C254.643 90.093 255.368 91.909 254.995 94.83C254.622 97.752 253.598 100.535 251.305 100.571C249.012 100.608 249.595 97.061 249.595 97.061Z" fill="#F7B094"/>
<path d="M247.828 94.982C247.781 95.005 247.728 95.022 247.667 95.031C246.775 95.156 246.42 94.077 246.287 93.401C245.978 91.824 246.027 90.228 245.971 88.633C245.958 88.233 245.99 87.735 245.826 87.359C245.325 86.212 243.99 85.466 243.583 84.282C243.109 82.904 244.447 81.529 243.916 80.02C243.103 77.709 240.136 77.178 237.99 77.203C234.769 77.241 231.63 77.838 228.452 78.331C225.097 78.852 220.809 79.346 217.853 77.224C214.29 74.667 212.802 68.002 215.461 64.353C216.91 62.364 219.659 61.305 222.067 61.25C224.62 61.192 226.777 62.713 229.118 63.479C230.983 64.089 232.787 62.305 234.53 61.956C236.721 61.518 237.652 63.91 239.59 63.976C241.473 64.04 243.321 62.569 245.152 62.234C248.802 61.568 248.587 65.234 251.037 66.486C252.559 67.264 254.526 66.793 256.066 67.584C257.236 68.185 257.4 69.241 257.655 70.437C257.875 71.471 257.888 72.665 258.228 73.648C258.534 74.532 259.277 75.09 259.856 75.782C260.488 76.536 260.891 77.417 261.212 78.363C261.922 80.46 262.08 82.723 261.886 84.919C261.56 88.606 260.374 92.234 259.143 95.706C258.344 97.959 258.047 100.305 256.818 102.437C256.488 103.01 255.022 104.683 254.477 103.437C254.36 103.17 254.378 102.866 254.399 102.575C254.561 100.253 256.723 85.288 251.055 87.086C249.865 87.463 249.067 88.453 248.623 89.583C248.093 90.934 248.055 92.295 248.123 93.723C248.133 93.927 248.138 94.132 248.13 94.336C248.12 94.601 248.054 94.869 247.828 94.982Z" fill="#3D3D7A"/>
<path d="M240.343 112.599C246.789 111.563 251.042 106.471 251.042 106.471C251.042 106.471 249.303 115.053 239.956 115.507L240.343 112.599Z" fill="#F7B094"/>
<path d="M250.924 229.57H260.151V318.095C260.151 318.993 259.423 319.721 258.525 319.721H252.55C251.652 319.721 250.924 318.993 250.924 318.095V229.57Z" fill="#0A2033"/>
<path d="M230.166 230.836H280.908V232.221C280.908 235.708 278.081 238.535 274.594 238.535H236.48C232.993 238.535 230.166 235.708 230.166 232.221V230.836Z" fill="#30475E"/>
<path d="M250.924 309.225H260.151V329.739C260.151 330.637 259.423 331.365 258.525 331.365H252.55C251.652 331.365 250.924 330.637 250.924 329.739V309.225Z" fill="#0A2033"/>
<path d="M207.657 325.965C207.657 328.947 210.075 331.365 213.057 331.365C216.039 331.365 218.457 328.947 218.457 325.965C218.457 322.983 216.039 320.565 213.057 320.565C210.075 320.565 207.657 322.983 207.657 325.965Z" fill="#0A2033"/>
<path d="M292.617 325.965C292.617 328.947 295.035 331.365 298.017 331.365C300.999 331.365 303.417 328.947 303.417 325.965C303.417 322.983 300.999 320.565 298.017 320.565C295.034 320.565 292.617 322.983 292.617 325.965Z" fill="#0A2033"/>
<path d="M246.256 318.57H264.818V302.35H246.256V318.57Z" fill="#30475E"/>
<path d="M207.657 322.387H303.417V320.505C303.417 317.329 300.842 314.754 297.666 314.754H213.409C210.233 314.754 207.658 317.329 207.658 320.505V322.387H207.657Z" fill="#FBD15B"/>
<path d="M255.537 240.354H252.336V300.902H255.537V240.354Z" fill="#30475E"/>
<path d="M291.786 165.403C289.572 165.334 287.772 167.166 287.9 169.377C288.534 180.367 286.204 207.177 275.968 216.325C263.452 227.509 227.979 225.986 227.979 225.986C227.979 225.986 222.121 233.176 233.837 234.773C245.554 236.371 278.573 235.306 286.562 227.85C294.295 220.633 298.885 201.724 295.426 168.812C295.227 166.924 293.683 165.462 291.786 165.403Z" fill="#FBD15B"/>
<path d="M225.324 300.903L229.542 310.521L216.617 316.193L212.383 306.543L225.324 300.903Z" fill="url(#paint2_radial_1009_927)"/>
<path d="M286.277 193.999C285.478 195.597 228.048 194.031 222.624 194.526C222.624 194.526 187.474 211.302 182.425 227.008C181.914 228.59 181.77 230.683 181.93 233.175C183.336 255.287 208.516 308.236 208.516 308.236L212.382 306.542L225.324 300.902L227.161 300.103C227.161 300.103 207.19 240.588 211.184 237.393C215.178 234.198 260.442 226.209 276.147 221.959C291.869 217.694 286.277 193.999 286.277 193.999Z" fill="#56548C"/>
<path d="M176.048 303.377L177.057 317.827H162.949L161.94 303.345L176.048 303.377Z" fill="url(#paint3_radial_1009_927)"/>
<path d="M222.337 194.031L221.826 194.255C221.826 194.255 162.982 202.515 153.396 219.02C147.165 229.757 159.226 308.209 159.226 308.209L180.044 308.257C180.044 308.257 176.93 242.906 177.969 239.263C179.135 235.109 181.132 233.607 181.931 233.176C181.771 230.684 181.915 228.59 182.426 227.009C187.475 211.303 222.625 194.527 222.625 194.527C222.512 194.447 222.416 194.271 222.337 194.031Z" fill="#3D3D7A"/>
<path d="M279.173 139.661L275.227 140.204C275.227 140.204 274.268 150.845 271.92 161.486L222.758 180.147L222.087 183.71C221.879 183.694 221.672 183.678 221.48 183.662C221.496 184.397 221.496 185.116 221.528 185.787C221.64 189.893 221.911 192.849 222.343 194.031C222.423 194.271 222.519 194.446 222.631 194.526C223.967 195.615 241.354 193.505 260.152 200.407C276.455 206.393 285.592 212.932 286.015 212.053C291.136 201.402 281.809 159.601 279.173 139.661Z" fill="#FF8578"/>
<path d="M274.044 164.042C272.734 170.337 269.347 182.863 262.7 184.541C254.024 186.746 237.248 186.634 221.527 185.787C221.495 185.116 221.495 184.397 221.479 183.662C221.671 183.678 221.878 183.694 222.086 183.71L222.757 180.147L271.919 161.486C274.268 150.845 275.226 140.204 275.226 140.204C275.226 140.204 275.226 140.268 275.242 140.38C275.338 142.026 276.009 154.743 274.044 164.042Z" fill="#F4675D"/>
<path d="M224.765 123.956C223.886 125.554 222.624 142.649 221.937 159.617L211.887 150.238C216.153 141.978 224.765 123.956 224.765 123.956Z" fill="#F4675D"/>
<path d="M218.742 172.015C210.258 173.485 202.461 174.747 202.461 174.747L202.445 175.162C193.002 167.621 178.639 146.259 178.639 146.259C178.639 146.259 182.937 141.098 184.007 139.74C184.167 139.532 207.589 155.653 208.788 155.509C209.092 155.477 210.29 153.368 211.888 150.237L221.938 159.616C221.778 163.658 221.65 167.684 221.57 171.503C220.627 171.679 219.684 171.839 218.742 172.015Z" fill="#F7B094"/>
<path d="M202.461 174.747L202.253 181.745H176.69C176.69 181.745 179.23 171.759 186.149 171.759C193.067 171.759 195.735 175.418 195.735 175.418L202.461 174.747Z" fill="url(#paint4_radial_1009_927)"/>
<path d="M183.816 139.581L184.008 139.741C182.937 141.099 178.64 146.26 178.64 146.26L175.972 144.375C175.972 144.375 173.032 146.165 169.613 144.295C166.05 142.362 168.255 137.746 168.438 137.199C167.747 137.394 163.478 140.844 162.807 140.477C162.136 140.109 161.641 138.895 166.418 134.182C171.179 129.469 177.666 135.524 177.858 135.524L183.816 139.581Z" fill="#F7B094"/>
<path d="M170.168 143.493C170.168 143.493 169.138 145.422 170.969 146.26C172.8 147.098 176.363 147.703 177.893 147.556C179.423 147.409 180.64 145.267 180.64 145.267L176.005 140.918H172.3L170.168 143.493Z" fill="#F7B094"/>
<path d="M169.893 144.44C170.168 143.493 172.799 143.998 174.431 144.037C175.633 144.066 176.291 143.751 176.663 142.835C177.035 141.92 175.29 140.46 174.946 140.918C174.603 141.376 175.576 142.02 175.604 142.628C175.633 143.236 173.887 143.436 172.543 143.436C171.198 143.436 168.878 143.786 168.878 143.786L169.893 144.44Z" fill="#E8987C"/>
<path d="M269.421 170.561L244.385 161.694C242.564 165.097 240.614 167.654 238.681 168.165C235.757 168.932 228.695 170.258 221.569 171.504C220.626 171.68 219.684 171.839 218.741 172.015C210.257 173.485 202.46 174.747 202.46 174.747L202.444 175.162V175.434L202.252 181.745V183.346C202.252 183.346 210.752 182.911 221.473 183.662C236.476 184.732 255.824 185.372 262.231 182.352C265.235 180.93 267.631 176.265 269.517 170.513C269.485 170.529 269.453 170.545 269.421 170.561Z" fill="url(#paint5_radial_1009_927)"/>
<path d="M244.385 161.694L269.421 170.561L268.288 173.906L243.508 163.277L244.385 161.694Z" fill="#F7B094"/>
<path d="M244.385 161.694C242.564 165.097 240.614 167.654 238.681 168.165C235.757 168.932 228.695 170.258 221.569 171.504C221.649 167.685 221.777 163.659 221.937 159.617C222.624 142.649 223.886 125.554 224.765 123.956C226.203 121.288 230.133 115.488 236.332 114.162L236.348 114.242C236.348 114.242 234.207 126.896 246.989 126.896C259.164 126.896 260.713 115.057 260.825 113.923C267.088 114.626 276.69 117.758 278.016 130.348C278.288 132.84 278.671 136.036 279.166 139.663L275.22 140.206C275.22 140.206 273.622 157.941 269.516 170.515C269.484 170.531 269.452 170.547 269.42 170.563L244.385 161.694Z" fill="#FF8578"/>
<path d="M244.126 159.386L254.123 135.186L246.758 160.364L244.126 159.386Z" fill="#6D4B35"/>
<path d="M260.826 113.922H255.378C255.378 113.922 247.625 122.435 242.641 122.435C237.657 122.435 240.344 113.97 240.344 113.97H237.913C230.928 113.97 225.05 119.215 224.26 126.156C224.169 126.951 224.087 127.705 224.016 128.387C223.483 133.537 244.346 137.285 244.346 137.285L255.088 136.684L261.611 123.956L262.911 118.744L260.826 113.922Z" fill="#FF8578"/>
<path d="M195.083 327.263C195.568 329.866 197.372 331.717 199.976 331.231L234.677 324.759C235.555 324.595 236.134 323.751 235.97 322.873L235.396 319.794C235.396 319.794 198.901 326.18 195.066 327.244L195.083 327.263Z" fill="#F1F2F2"/>
<path d="M205.407 318.526C205.769 318.212 206.117 317.9 206.479 317.586C207.175 316.963 207.86 316.357 208.519 315.769C208.867 315.458 209.215 315.146 209.538 314.854C210.172 314.286 210.769 313.754 211.304 313.277C211.689 312.93 212.048 312.601 212.371 312.309C212.964 311.777 213.449 311.343 213.788 311.039C214.082 310.776 214.518 310.763 214.821 311.017C216.248 312.216 220.858 314.959 229.209 309.791C229.605 309.546 230.13 309.674 230.345 310.087L235.395 319.792C235.395 319.792 198.9 326.178 195.065 327.242C196.326 326.458 200.985 322.427 205.407 318.526Z" fill="#3D3D7A"/>
<path d="M140.432 326.923C140.497 329.57 141.983 331.684 144.63 331.62L179.919 330.759C180.812 330.737 181.518 329.996 181.496 329.103L181.42 325.972C181.42 325.972 144.373 326.463 140.418 326.901L140.432 326.923Z" fill="#F1F2F2"/>
<path d="M152.016 319.942C152.424 319.689 152.817 319.438 153.224 319.185C154.01 318.681 154.783 318.191 155.527 317.717C155.92 317.465 156.313 317.213 156.679 316.976C157.395 316.516 158.069 316.086 158.673 315.701C159.108 315.419 159.515 315.153 159.881 314.916C160.551 314.486 161.099 314.134 161.482 313.888C161.814 313.675 162.247 313.732 162.505 314.031C163.722 315.442 167.837 318.884 176.905 315.113C177.335 314.934 177.833 315.144 177.98 315.587L181.419 325.973C181.419 325.973 144.372 326.464 140.417 326.902C141.787 326.326 147.029 323.088 152.016 319.942Z" fill="#3D3D7A"/>
<path d="M116.715 183.346C115.881 183.346 115.135 182.829 114.842 182.048L97.4961 135.785C97.0058 134.478 97.9724 133.083 99.3688 133.083H148.75C149.584 133.083 150.33 133.6 150.623 134.381L167.97 180.644C168.46 181.951 167.493 183.346 166.097 183.346H116.715Z" fill="#ABB5BA"/>
<path d="M171.521 181.248C171.898 182.265 171.146 183.346 170.062 183.346V183.346C169.413 183.346 168.832 182.944 168.604 182.336L150.875 135.054C150.525 134.12 151.242 133.132 152.239 133.177V133.177C152.791 133.201 153.277 133.551 153.475 134.068L170.58 178.713L171.521 181.248Z" fill="#8495A0"/>
<path d="M171.259 183.346H205.079C205.973 183.346 206.69 182.607 206.662 181.714V181.714C206.637 180.858 205.936 180.177 205.08 180.177C198.262 180.177 171.052 180.177 170.534 180.177" fill="#8495A0"/>
<path d="M322.302 192.932H313.766V333.166H322.302V192.932Z" fill="#8495A0"/>
<path d="M275.968 192.932H267.432V333.166H275.968V192.932Z" fill="#ABB5BA"/>
<path d="M127.529 192.932H118.993V333.166H127.529V192.932Z" fill="#8495A0"/>
<path d="M81.1959 192.932H72.6599V333.166H81.1959V192.932Z" fill="#ABB5BA"/>
<path d="M330.844 193.465H64.483C62.192 193.465 60.334 191.607 60.334 189.316V187.495C60.334 185.203 62.192 183.346 64.483 183.346H330.843C333.135 183.346 334.992 185.204 334.992 187.495V189.316C334.993 191.608 333.135 193.465 330.844 193.465Z" fill="#141B56"/>
<path d="M105.441 138.366L106.359 140.813H117.047L116.129 138.366H105.441Z" fill="#8495A0"/>
<path d="M211.888 150.238L211.121 151.72L221.937 162.899V159.617L211.888 150.238Z" fill="#E8987C"/>
<path d="M428.661 331.363H4.74512C2.53598 331.363 0.745117 333.154 0.745117 335.363V337.225C0.745117 339.434 2.53598 341.225 4.74512 341.225H428.661C430.87 341.225 432.661 339.434 432.661 337.225V335.363C432.661 333.154 430.87 331.363 428.661 331.363Z" fill="#A5B7C6"/>
<path d="M364.183 258.215C362.467 266.54 362.984 280.721 351.97 282.967C349.004 283.572 346.139 281.516 344.415 279.16C342.159 276.077 341.619 269.551 341.659 265.819C341.69 262.861 342.699 259.562 343.024 256.578C343.375 253.355 343.66 250.125 344.036 246.904C345.391 235.296 351.455 225.567 361.712 219.772C362.506 223.582 364.316 226.807 365.911 230.466C366.638 232.134 367.295 233.893 367.768 235.641C368.607 238.736 367.592 241.865 366.839 244.829C365.727 249.213 365.097 253.781 364.183 258.215Z" fill="url(#paint6_linear_1009_927)"/>
<path d="M350.107 283.247C350.185 282.549 350.271 281.85 350.363 281.152C351.679 281.149 353.049 280.401 354.154 279.828C356.07 278.835 357.623 277.411 359.129 275.889C359.209 275.808 359.074 275.677 358.988 275.749C357.487 277.01 355.931 278.231 354.144 279.064C353.148 279.528 351.692 280.287 350.464 280.434C350.58 279.601 350.708 278.769 350.846 277.939C352.216 277.771 353.471 276.871 354.632 276.183C356.604 275.013 358.3 273.499 360.058 272.041C360.078 272.024 360.054 271.994 360.033 272.009C357.343 273.962 354.347 276.742 350.946 277.351C351.126 276.311 351.317 275.274 351.535 274.243C351.546 274.189 351.558 274.136 351.57 274.082C355.507 273.086 358.171 269.998 361.185 267.502C361.234 267.462 361.182 267.378 361.13 267.418C358.161 269.723 355.372 272.355 351.702 273.473C352.02 271.999 352.351 270.529 352.684 269.061C356.247 267.747 359.092 265.66 361.581 262.753C361.623 262.704 361.554 262.636 361.509 262.683C358.932 265.365 356.094 266.906 352.826 268.432C353.155 266.979 353.482 265.525 353.791 264.068C355.332 263.31 356.953 262.849 358.377 261.852C359.781 260.869 361.041 259.697 361.945 258.234C361.993 258.157 361.878 258.084 361.827 258.158C359.834 261.023 356.829 261.915 353.925 263.422C354.208 262.064 354.472 260.701 354.708 259.331C357.944 257.549 361.461 255.897 363.295 252.482C363.313 252.448 363.266 252.415 363.245 252.448C361.302 255.586 357.906 256.937 354.823 258.645C354.863 258.401 354.908 258.158 354.946 257.913C355.144 256.642 355.33 255.37 355.512 254.098C357.372 253.353 359.144 252.302 360.818 251.212C362.006 250.439 363.275 249.672 364.052 248.457C364.101 248.381 363.989 248.302 363.937 248.376C362.201 250.863 358.4 252.3 355.592 253.545C355.775 252.26 355.955 250.974 356.138 249.689C359.254 247.804 362.919 246.761 364.836 243.363C364.893 243.262 364.745 243.169 364.682 243.268C362.696 246.371 359.201 247.328 356.223 249.089C356.338 248.293 356.454 247.497 356.574 246.702C359.938 245.465 363.85 242.649 365.624 239.607C365.722 239.44 365.479 239.284 365.37 239.445C363.56 242.114 359.925 245.014 356.672 246.07C356.871 244.781 357.079 243.494 357.308 242.209C357.331 242.174 357.348 242.136 357.358 242.095C358.868 241.65 360.362 240.585 361.665 239.781C363.237 238.811 364.738 237.684 365.716 236.09C365.824 235.914 365.538 235.751 365.436 235.932C363.941 238.599 360.395 240.387 357.459 241.405C357.546 240.937 357.63 240.468 357.723 240C357.862 239.3 358.004 238.601 358.147 237.902C359.349 237.072 360.875 236.674 362.082 235.798C363.131 235.036 364.047 234.118 364.946 233.188C365.036 233.096 364.903 232.953 364.808 233.042C363.59 234.187 362.337 235.285 360.855 236.079C360.026 236.523 359.081 236.776 358.278 237.262C358.513 236.119 358.747 234.976 358.97 233.832C358.984 233.829 358.998 233.825 359.013 233.823C359.027 233.826 359.042 233.829 359.056 233.832C359.139 233.848 359.205 233.819 359.254 233.771C360.888 233.359 362.139 231.951 363.237 230.752C363.263 230.723 363.223 230.682 363.195 230.709C362.042 231.775 360.733 232.954 359.189 233.412C359.183 233.411 359.179 233.407 359.173 233.406C359.133 233.4 359.095 233.394 359.056 233.387C359.235 232.456 359.405 231.522 359.561 230.587C359.679 230.566 359.782 230.465 359.754 230.347C360.62 229.765 361.408 229.024 362.147 228.298C362.202 228.244 362.124 228.158 362.065 228.209C361.297 228.871 360.539 229.417 359.674 229.896C359.979 227.964 360.216 226.022 360.324 224.06C360.334 223.878 360.059 223.876 360.043 224.055C359.872 225.943 359.598 227.813 359.273 229.674C358.371 228.491 357.368 227.273 356.817 225.919C356.788 225.849 356.677 225.877 356.701 225.953C356.971 226.794 357.435 227.529 357.896 228.277C358.308 228.946 358.637 229.725 359.162 230.319C358.981 231.318 358.784 232.315 358.579 233.31C357.483 233.134 356.477 232.926 355.572 232.133C354.464 231.162 353.834 229.84 353.724 228.376C353.711 228.196 353.426 228.197 353.443 228.377C353.568 229.74 354.11 231.021 355.042 232.037C356.022 233.106 357.173 233.446 358.493 233.72C358.253 234.869 358.005 236.017 357.752 237.164C356.756 236.567 355.831 235.786 354.934 235.071C353.486 233.917 352.631 232.528 351.374 231.228C351.248 231.098 351.043 231.286 351.167 231.418C352.345 232.671 353.142 234.027 354.482 235.152C355.447 235.962 356.511 236.977 357.662 237.576C357.649 237.637 357.635 237.697 357.622 237.758C357.61 237.77 357.596 237.779 357.584 237.791C357.496 237.877 357.506 237.976 357.559 238.048C357.317 239.147 357.076 240.246 356.844 241.347C356.83 241.416 356.817 241.485 356.803 241.554C354.241 240.381 350.413 238.344 350.074 235.372C350.042 235.089 349.62 235.168 349.685 235.457C350.443 238.82 354.139 240.311 356.686 242.145C356.435 243.39 356.205 244.639 355.993 245.89C354.339 245.321 352.765 244.617 351.376 243.512C350.112 242.507 348.325 241.295 347.756 239.739C347.738 239.69 347.666 239.722 347.682 239.77C348.209 241.317 349.812 242.381 350.979 243.436C352.46 244.776 353.975 245.913 355.878 246.449C355.864 246.504 355.86 246.561 355.873 246.616C355.743 247.41 355.617 248.204 355.495 248.999C352.384 248.76 348.031 246.397 346.441 244.044C346.434 244.033 346.419 244.045 346.425 244.056C347.509 245.851 349.149 246.901 350.997 247.812C352.378 248.492 353.869 249.297 355.431 249.413C355.208 250.885 354.992 252.359 354.772 253.832C353.422 253.329 351.992 253.088 350.657 252.553C348.671 251.758 347.155 250.331 345.986 248.576C345.916 248.47 345.739 248.559 345.808 248.67C347.962 252.094 351.06 253.099 354.69 254.381C354.509 255.589 354.32 256.797 354.12 258.002C351.149 257.433 347.307 255.62 345.804 253.039C345.694 252.849 345.392 253.007 345.502 253.198C346.452 254.851 348.088 255.897 349.756 256.74C350.958 257.347 352.613 258.353 354.045 258.461C354.038 258.501 354.032 258.54 354.026 258.58C353.732 260.315 353.389 262.041 353.019 263.762C349.7 262.928 347.555 260.469 345.143 258.169C344.975 258.009 344.713 258.253 344.88 258.417C347.337 260.835 349.496 263.373 352.91 264.267C352.604 265.667 352.278 267.063 351.94 268.456C349.114 267.665 346.316 265.66 344.488 263.356C344.358 263.193 344.131 263.414 344.254 263.576C346.154 266.076 348.893 267.962 351.81 268.996C351.443 270.491 351.064 271.982 350.68 273.472C347.776 273.03 345.539 271.212 343.751 268.915C343.709 268.862 343.616 268.932 343.656 268.987C345.245 271.198 347.648 273.75 350.54 274.018C350.417 274.494 350.294 274.969 350.172 275.445C350.098 275.732 350.02 276.023 349.941 276.316C347.751 275.671 345.719 274.885 343.912 273.41C343.861 273.369 343.804 273.447 343.851 273.49C345.568 275.036 347.624 276.078 349.821 276.754C349.577 277.649 349.32 278.569 349.066 279.507C348.523 279.254 347.997 278.977 347.403 278.799C346.314 278.472 345.609 277.782 344.661 277.212C344.574 277.16 344.476 277.283 344.563 277.34C345.395 277.883 345.98 278.582 346.93 278.94C347.633 279.205 348.296 279.543 348.975 279.844C347.977 283.564 347.094 287.518 347.573 291.089C347.679 291.881 349.008 292.091 349.213 291.248C349.844 288.658 349.811 285.893 350.107 283.247Z" fill="#747DED"/>
<path d="M329.328 255.831C331.286 264.103 337.74 276.74 328.703 283.425C326.269 285.225 322.805 284.57 320.247 283.162C316.901 281.32 313.657 275.631 312.118 272.231C310.898 269.536 310.42 266.119 309.455 263.278C308.412 260.208 307.308 257.159 306.289 254.081C302.618 242.986 304.009 231.607 310.863 222.024C313.191 225.143 316.193 227.303 319.183 229.947C320.546 231.152 321.884 232.47 323.051 233.855C325.118 236.307 325.518 239.571 326.087 242.576C326.929 247.019 328.286 251.427 329.328 255.831Z" fill="url(#paint7_linear_1009_927)"/>
<path d="M327.132 284.466C326.908 283.8 326.692 283.13 326.48 282.459C327.672 281.9 328.598 280.644 329.358 279.659C330.676 277.95 331.483 276.004 332.205 273.988C332.243 273.881 332.065 273.819 332.018 273.921C331.19 275.697 330.294 277.461 329.026 278.971C328.319 279.812 327.319 281.114 326.268 281.766C326.021 280.962 325.786 280.154 325.561 279.343C326.732 278.613 327.491 277.267 328.252 276.153C329.546 274.26 330.445 272.171 331.423 270.107C331.434 270.084 331.4 270.066 331.387 270.089C329.773 272.995 328.23 276.78 325.403 278.767C325.127 277.748 324.863 276.727 324.625 275.701C324.613 275.647 324.601 275.594 324.589 275.54C327.738 272.975 328.849 269.052 330.529 265.517C330.556 265.46 330.473 265.406 330.444 265.464C328.725 268.807 327.308 272.37 324.453 274.933C324.119 273.463 323.799 271.99 323.481 270.519C326.156 267.824 327.854 264.732 328.885 261.045C328.902 260.983 328.811 260.95 328.79 261.012C327.586 264.531 325.663 267.125 323.345 269.888C323.03 268.431 322.713 266.976 322.378 265.524C323.455 264.186 324.73 263.084 325.6 261.58C326.458 260.097 327.106 258.502 327.308 256.795C327.319 256.705 327.184 256.688 327.169 256.777C326.571 260.216 324.224 262.293 322.227 264.885C321.91 263.534 321.574 262.187 321.21 260.846C323.392 257.864 325.883 254.883 326.104 251.013C326.106 250.975 326.049 250.965 326.044 251.004C325.607 254.669 323.099 257.327 321.025 260.177C320.958 259.939 320.896 259.7 320.828 259.462C320.472 258.226 320.103 256.995 319.731 255.765C321.103 254.304 322.266 252.604 323.323 250.909C324.073 249.707 324.9 248.475 325.092 247.047C325.104 246.957 324.969 246.933 324.954 247.023C324.43 250.01 321.59 252.918 319.57 255.231C319.193 253.989 318.814 252.747 318.438 251.505C320.467 248.481 323.349 245.989 323.653 242.099C323.662 241.983 323.489 241.962 323.474 242.078C322.984 245.729 320.218 248.072 318.262 250.925C318.03 250.155 317.799 249.384 317.573 248.612C320.101 246.071 322.458 241.866 322.784 238.36C322.802 238.167 322.516 238.128 322.485 238.32C321.971 241.503 319.899 245.666 317.396 247.997C317.032 246.745 316.677 245.49 316.343 244.229C316.349 244.187 316.348 244.146 316.34 244.105C317.522 243.064 318.426 241.468 319.268 240.189C320.284 238.646 321.169 236.991 321.382 235.133C321.406 234.928 321.077 234.901 321.062 235.108C320.833 238.157 318.372 241.274 316.14 243.437C316.021 242.976 315.9 242.515 315.786 242.052C315.616 241.359 315.45 240.665 315.285 239.971C316.024 238.711 317.24 237.707 317.964 236.403C318.594 235.269 319.037 234.05 319.459 232.828C319.501 232.706 319.321 232.633 319.272 232.754C318.651 234.306 317.979 235.83 316.97 237.175C316.406 237.927 315.656 238.556 315.133 239.335C314.864 238.2 314.593 237.065 314.313 235.933C314.325 235.925 314.336 235.915 314.348 235.907C314.362 235.903 314.376 235.9 314.391 235.897C314.473 235.876 314.521 235.822 314.544 235.758C315.852 234.695 316.391 232.89 316.881 231.34C316.893 231.303 316.839 231.283 316.825 231.319C316.23 232.772 315.54 234.394 314.334 235.46C314.328 235.461 314.323 235.459 314.316 235.461C314.277 235.472 314.24 235.483 314.202 235.494C313.971 234.574 313.731 233.656 313.478 232.743C313.576 232.674 313.627 232.539 313.552 232.444C314.092 231.551 314.493 230.547 314.856 229.577C314.883 229.504 314.777 229.46 314.745 229.531C314.328 230.456 313.871 231.27 313.29 232.069C312.751 230.189 312.146 228.328 311.416 226.504C311.348 226.335 311.098 226.449 311.159 226.618C311.801 228.402 312.341 230.213 312.833 232.037C311.516 231.345 310.092 230.665 309.021 229.669C308.966 229.617 308.877 229.69 308.93 229.748C309.529 230.397 310.261 230.867 310.994 231.351C311.649 231.784 312.277 232.351 313.004 232.668C313.261 233.65 313.504 234.637 313.737 235.625C312.669 235.928 311.67 236.164 310.514 235.827C309.1 235.414 307.97 234.482 307.253 233.201C307.165 233.044 306.908 233.164 306.999 233.32C307.687 234.502 308.72 235.436 309.993 235.963C311.333 236.518 312.52 236.341 313.832 236.032C314.099 237.175 314.359 238.32 314.614 239.467C313.459 239.346 312.291 239.029 311.176 238.759C309.376 238.323 308.015 237.426 306.326 236.778C306.157 236.713 306.05 236.97 306.218 237.038C307.815 237.676 309.109 238.57 310.799 239.024C312.016 239.351 313.409 239.822 314.705 239.88C314.718 239.94 314.732 240.001 314.745 240.061C314.739 240.077 314.73 240.091 314.724 240.107C314.681 240.222 314.731 240.308 314.809 240.35C315.053 241.448 315.298 242.547 315.553 243.643C315.569 243.711 315.587 243.779 315.603 243.848C312.786 243.866 308.455 243.635 306.894 241.084C306.745 240.841 306.396 241.091 306.577 241.325C308.683 244.054 312.664 243.845 315.746 244.433C316.044 245.668 316.362 246.897 316.699 248.121C314.959 248.303 313.235 248.329 311.51 247.914C309.941 247.536 307.809 247.192 306.636 246.021C306.599 245.984 306.547 246.044 306.582 246.081C307.713 247.261 309.615 247.549 311.118 248.013C313.026 248.603 314.879 248.995 316.831 248.677C316.841 248.733 316.862 248.786 316.897 248.831C317.114 249.606 317.335 250.379 317.56 251.151C314.639 252.247 309.695 251.943 307.261 250.48C307.25 250.473 307.241 250.49 307.252 250.498C308.992 251.668 310.922 251.928 312.982 251.973C314.521 252.007 316.213 252.107 317.678 251.553C318.097 252.982 318.523 254.409 318.945 255.837C317.509 255.951 316.111 256.336 314.674 256.414C312.538 256.532 310.561 255.877 308.76 254.78C308.651 254.714 308.529 254.869 308.639 254.94C312.037 257.135 315.27 256.738 319.102 256.369C319.447 257.541 319.786 258.715 320.114 259.892C317.18 260.63 312.932 260.608 310.481 258.903C310.301 258.778 310.094 259.048 310.275 259.175C311.834 260.273 313.758 260.53 315.627 260.59C316.973 260.633 318.898 260.847 320.241 260.34C320.252 260.379 320.263 260.417 320.274 260.456C320.74 262.153 321.158 263.863 321.548 265.579C318.187 266.224 315.205 264.9 312.047 263.832C311.827 263.758 311.693 264.09 311.913 264.168C315.161 265.323 318.189 266.713 321.662 266.082C321.975 267.481 322.269 268.883 322.55 270.289C319.655 270.765 316.271 270.128 313.641 268.811C313.455 268.717 313.342 269.014 313.522 269.109C316.3 270.573 319.579 271.128 322.659 270.834C322.957 272.344 323.243 273.856 323.524 275.369C320.705 276.194 317.91 275.49 315.319 274.162C315.259 274.131 315.203 274.234 315.263 274.268C317.636 275.602 320.892 276.901 323.627 275.924C323.717 276.407 323.806 276.89 323.895 277.373C323.949 277.665 324.002 277.961 324.054 278.26C321.797 278.6 319.623 278.745 317.362 278.17C317.299 278.154 317.28 278.249 317.341 278.268C319.55 278.945 321.854 279.022 324.131 278.708C324.288 279.622 324.443 280.565 324.608 281.522C324.009 281.522 323.415 281.493 322.802 281.582C321.677 281.746 320.746 281.417 319.646 281.301C319.545 281.29 319.508 281.443 319.612 281.458C320.595 281.599 321.421 281.986 322.433 281.909C323.182 281.852 323.926 281.879 324.669 281.865C325.334 285.659 326.203 289.616 328.144 292.651C328.574 293.324 329.867 292.954 329.698 292.103C329.178 289.483 327.981 286.989 327.132 284.466Z" fill="#747DED"/>
<path d="M348.417 249.42C348.882 259.93 353.802 276.787 341.269 282.822C337.894 284.447 333.833 282.849 331.05 280.545C327.409 277.53 324.782 269.864 323.698 265.374C322.839 261.815 323.049 257.551 322.534 253.873C321.978 249.899 321.341 245.937 320.815 241.959C318.921 227.621 323.247 214.109 333.798 204.047C335.906 208.378 339.055 211.699 342.079 215.605C343.457 217.385 344.778 219.297 345.876 221.251C347.821 224.711 347.552 228.772 347.547 232.557C347.54 238.152 348.169 243.824 348.417 249.42Z" fill="url(#paint8_linear_1009_927)"/>
<path d="M339.117 283.723C338.999 282.861 338.891 281.997 338.79 281.132C340.368 280.729 341.785 279.416 342.937 278.395C344.935 276.623 346.367 274.443 347.711 272.16C347.783 272.038 347.58 271.922 347.499 272.035C346.081 274.003 344.584 275.94 342.692 277.481C341.638 278.34 340.121 279.691 338.692 280.24C338.578 279.205 338.48 278.168 338.393 277.131C339.986 276.514 341.22 275.054 342.403 273.876C344.414 271.874 345.991 269.543 347.657 267.261C347.676 267.235 347.638 267.206 347.618 267.23C344.983 270.389 342.231 274.633 338.334 276.395C338.234 275.093 338.149 273.79 338.098 272.487C338.095 272.419 338.094 272.351 338.091 272.283C342.513 269.894 344.772 265.382 347.633 261.473C347.679 261.41 347.591 261.325 347.541 261.389C344.678 265.055 342.129 269.058 338.065 271.513C337.999 269.648 337.951 267.784 337.905 265.921C341.781 263.265 344.562 259.898 346.668 255.655C346.703 255.584 346.601 255.522 346.56 255.592C344.281 259.592 341.343 262.3 337.885 265.123C337.839 263.279 337.791 261.436 337.72 259.594C339.339 258.217 341.144 257.172 342.55 255.545C343.937 253.94 345.093 252.152 345.734 250.123C345.768 250.016 345.608 249.964 345.569 250.068C344.046 254.11 340.711 256.091 337.684 258.78C337.612 257.065 337.515 255.349 337.383 253.634C340.726 250.514 344.444 247.466 345.609 242.813C345.621 242.767 345.554 242.742 345.539 242.788C344.159 247.142 340.494 249.793 337.313 252.777C337.287 252.472 337.267 252.167 337.239 251.862C337.092 250.278 336.929 248.695 336.761 247.113C338.767 245.655 340.574 243.857 342.252 242.042C343.442 240.754 344.732 239.449 345.297 237.756C345.332 237.65 345.174 237.589 345.134 237.694C343.805 241.204 339.68 244.082 336.688 246.426C336.517 244.829 336.344 243.232 336.174 241.634C339.341 238.427 343.422 236.065 344.692 231.407C344.73 231.268 344.525 231.202 344.479 231.339C343.037 235.664 339.133 237.872 336.094 240.888C335.99 239.898 335.888 238.908 335.791 237.917C339.452 235.413 343.292 230.847 344.499 226.661C344.565 226.431 344.227 226.317 344.145 226.543C342.783 230.293 339.3 234.875 335.718 237.129C335.566 235.522 335.425 233.915 335.31 232.304C335.327 232.255 335.336 232.205 335.336 232.152C337.013 231.161 338.482 229.43 339.803 228.069C341.395 226.429 342.854 224.621 343.544 222.412C343.62 222.168 343.227 222.06 343.161 222.307C342.176 225.96 338.463 229.18 335.249 231.293C335.211 230.704 335.17 230.116 335.14 229.527C335.094 228.645 335.053 227.763 335.013 226.881C336.204 225.521 337.914 224.581 339.096 223.163C340.124 221.93 340.945 220.551 341.742 219.163C341.821 219.025 341.619 218.894 341.532 219.029C340.418 220.772 339.248 222.469 337.71 223.871C336.85 224.655 335.792 225.245 334.977 226.072C334.912 224.629 334.846 223.187 334.768 221.746C334.785 221.739 334.8 221.729 334.816 221.722C334.834 221.721 334.852 221.72 334.87 221.719C334.975 221.713 335.045 221.658 335.089 221.586C336.925 220.596 337.999 218.528 338.953 216.756C338.976 216.714 338.916 216.677 338.889 216.717C337.829 218.345 336.615 220.157 334.902 221.175C334.894 221.175 334.889 221.172 334.88 221.172C334.831 221.177 334.783 221.181 334.733 221.185C334.666 220.013 334.586 218.842 334.49 217.673C334.625 217.612 334.718 217.459 334.649 217.326C335.512 216.365 336.233 215.237 336.898 214.142C336.948 214.06 336.829 213.981 336.773 214.06C336.052 215.088 335.308 215.972 334.416 216.809C334.196 214.399 333.892 211.997 333.426 209.61C333.383 209.389 333.052 209.47 333.087 209.689C333.454 212.007 333.692 214.334 333.867 216.665C332.426 215.519 330.853 214.362 329.781 212.904C329.725 212.829 329.601 212.896 329.652 212.98C330.23 213.907 331.011 214.649 331.79 215.407C332.487 216.085 333.119 216.919 333.928 217.473C334.014 218.727 334.08 219.982 334.135 221.238C332.766 221.359 331.497 221.415 330.171 220.737C328.547 219.907 327.39 218.513 326.815 216.789C326.744 216.577 326.404 216.664 326.478 216.875C327.041 218.472 328.08 219.845 329.506 220.781C331.006 221.766 332.49 221.826 334.157 221.754C334.217 223.206 334.268 224.658 334.313 226.111C332.937 225.697 331.591 225.041 330.297 224.455C328.21 223.509 326.762 222.102 324.86 220.924C324.67 220.806 324.48 221.094 324.669 221.215C326.462 222.361 327.829 223.746 329.779 224.69C331.182 225.369 332.767 226.265 334.329 226.635C334.331 226.712 334.334 226.788 334.336 226.865C334.325 226.883 334.311 226.898 334.3 226.916C334.22 227.046 334.262 227.162 334.347 227.232C334.39 228.624 334.433 230.016 334.489 231.407C334.493 231.494 334.499 231.581 334.502 231.668C331.073 231.038 325.861 229.754 324.554 226.291C324.429 225.961 323.947 226.184 324.113 226.511C326.042 230.317 330.929 230.984 334.54 232.413C334.616 233.983 334.718 235.551 334.845 237.117C332.687 236.936 330.586 236.568 328.584 235.663C326.763 234.841 324.252 233.928 323.097 232.233C323.061 232.18 322.983 232.24 323.018 232.293C324.119 233.99 326.366 234.78 328.085 235.692C330.268 236.851 332.43 237.756 334.877 237.822C334.876 237.892 334.889 237.961 334.922 238.024C335.006 239.016 335.096 240.007 335.191 240.998C331.386 241.654 325.447 240.14 322.825 237.798C322.813 237.787 322.798 237.806 322.809 237.817C324.654 239.642 326.94 240.405 329.433 240.937C331.296 241.335 333.33 241.848 335.239 241.514C335.417 243.348 335.605 245.181 335.788 247.015C334.016 246.821 332.227 246.965 330.462 246.728C327.838 246.376 325.587 245.123 323.651 243.372C323.534 243.266 323.349 243.427 323.466 243.538C327.089 246.994 331.111 247.259 335.855 247.697C336.004 249.202 336.143 250.708 336.269 252.214C332.532 252.432 327.372 251.421 324.787 248.781C324.597 248.587 324.283 248.868 324.473 249.064C326.114 250.76 328.394 251.518 330.651 252.024C332.277 252.388 334.568 253.093 336.318 252.788C336.322 252.837 336.327 252.887 336.331 252.936C336.505 255.107 336.617 257.282 336.694 259.458C332.459 259.464 329.14 257.164 325.549 255.134C325.299 254.993 325.059 255.365 325.308 255.511C328.989 257.667 332.348 260.058 336.716 260.095C336.773 261.868 336.806 263.641 336.822 265.415C333.192 265.323 329.226 263.766 326.334 261.555C326.129 261.398 325.923 261.733 326.12 261.89C329.158 264.313 333.016 265.747 336.829 266.102C336.842 268.007 336.839 269.911 336.83 271.815C333.212 272.165 329.977 270.662 327.135 268.448C327.069 268.396 326.978 268.509 327.043 268.563C329.619 270.734 333.277 273.068 336.827 272.512C336.824 273.12 336.821 273.728 336.818 274.335C336.816 274.702 336.811 275.074 336.806 275.45C333.983 275.34 331.307 275.014 328.691 273.791C328.618 273.757 328.572 273.869 328.642 273.906C331.171 275.24 333.954 275.867 336.795 276.012C336.774 277.16 336.744 278.342 336.723 279.544C335.995 279.405 335.279 279.232 334.513 279.199C333.107 279.137 332.052 278.523 330.742 278.127C330.622 278.091 330.541 278.268 330.664 278.31C331.827 278.709 332.741 279.371 333.988 279.512C334.912 279.617 335.81 279.821 336.716 279.976C336.646 284.742 336.786 289.753 338.443 293.893C338.811 294.811 340.468 294.66 340.459 293.587C340.442 290.295 339.565 286.986 339.117 283.723Z" fill="#747DED"/>
<path d="M351.112 287.66C353.406 287.66 355.23 289.586 355.106 291.877L354.871 296.203L354.145 309.506L353.161 327.58C353.045 329.702 351.291 331.363 349.167 331.363H327.151C325.026 331.363 323.272 329.702 323.157 327.58L322.173 309.506L321.448 296.203L321.213 291.877C321.088 289.586 322.913 287.66 325.207 287.66H351.112Z" fill="#95A8B5"/>
<path d="M354.871 296.203L354.776 297.916L354.68 299.689L354.145 309.506H322.173L321.638 299.689L321.543 297.916L321.448 296.203H354.871Z" fill="#A5B7C6"/>
<path d="M354.776 297.916L354.68 299.689H321.638L321.543 297.916H354.776Z" fill="#95A8B5"/>
<defs>
<radialGradient id="paint0_radial_1009_927" cx="0" cy="0" r="1" gradientUnits="userSpaceOnUse" gradientTransform="translate(248.52 113.379) scale(12.9255 12.9255)">
<stop stop-color="#FFC8AF"/>
<stop offset="1" stop-color="#FFBB9C"/>
</radialGradient>
<radialGradient id="paint1_radial_1009_927" cx="0" cy="0" r="1" gradientUnits="userSpaceOnUse" gradientTransform="translate(241.042 89.9827) rotate(-12.1516) scale(20.3776 20.3776)">
<stop stop-color="#FFC8AF"/>
<stop offset="1" stop-color="#FFBB9C"/>
</radialGradient>
<radialGradient id="paint2_radial_1009_927" cx="0" cy="0" r="1" gradientUnits="userSpaceOnUse" gradientTransform="translate(220.963 308.548) scale(8.1259 8.12589)">
<stop stop-color="#FFC8AF"/>
<stop offset="1" stop-color="#FFBB9C"/>
</radialGradient>
<radialGradient id="paint3_radial_1009_927" cx="0" cy="0" r="1" gradientUnits="userSpaceOnUse" gradientTransform="translate(169.499 310.586) scale(7.4015 7.4015)">
<stop stop-color="#FFC8AF"/>
<stop offset="1" stop-color="#FFBB9C"/>
</radialGradient>
<radialGradient id="paint4_radial_1009_927" cx="0" cy="0" r="1" gradientUnits="userSpaceOnUse" gradientTransform="translate(214.561 171.697) scale(41.4442 41.4442)">
<stop stop-color="#FFC8AF"/>
<stop offset="1" stop-color="#FFBB9C"/>
</radialGradient>
<radialGradient id="paint5_radial_1009_927" cx="0" cy="0" r="1" gradientUnits="userSpaceOnUse" gradientTransform="translate(214.561 171.697) scale(41.444 41.444)">
<stop stop-color="#FFC8AF"/>
<stop offset="1" stop-color="#FFBB9C"/>
</radialGradient>
<linearGradient id="paint6_linear_1009_927" x1="354.869" y1="219.773" x2="354.872" y2="283.073" gradientUnits="userSpaceOnUse">
<stop stop-color="#606BF1"/>
<stop offset="1" stop-color="#58479F"/>
</linearGradient>
<linearGradient id="paint7_linear_1009_927" x1="304.66" y1="224.912" x2="331.38" y2="282.297" gradientUnits="userSpaceOnUse">
<stop stop-color="#606BF1"/>
<stop offset="1" stop-color="#58479F"/>
</linearGradient>
<linearGradient id="paint8_linear_1009_927" x1="325.588" y1="206.12" x2="344.782" y2="282.07" gradientUnits="userSpaceOnUse">
<stop stop-color="#606BF1"/>
<stop offset="1" stop-color="#58479F"/>
</linearGradient>
</defs>
</svg>